<mxfile host="app.diagrams.net" modified="2022-11-11T16:09:32.393Z" agent="5.0 (Macintosh; Intel Mac OS X 10_14_6) AppleWebKit/537.36 (KHTML, like Gecko) Chrome/106.0.0.0 Safari/537.36" etag="uBazYp1CGqUfDSFt-ae7" version="20.4.1" type="github">
  <diagram id="zVVhfhjY1UuTqLKvNWQ_" name="第 1 页">
    <mxGraphModel dx="2102" dy="2356" grid="1" gridSize="10" guides="1" tooltips="1" connect="1" arrows="1" fold="1" page="1" pageScale="1" pageWidth="827" pageHeight="1169" math="0" shadow="0">
      <root>
        <mxCell id="0" />
        <mxCell id="1" parent="0" />
        <mxCell id="EnicjkxxKNR-Ltc45U5w-175" value="" style="rounded=1;whiteSpace=wrap;html=1;fillColor=#F7F7F7;" vertex="1" parent="1">
          <mxGeometry x="190" y="682" width="1200" height="558" as="geometry" />
        </mxCell>
        <mxCell id="EnicjkxxKNR-Ltc45U5w-174" value="" style="rounded=1;whiteSpace=wrap;html=1;fillColor=#F7F7F7;" vertex="1" parent="1">
          <mxGeometry x="190" y="42" width="1200" height="558" as="geometry" />
        </mxCell>
        <mxCell id="EnicjkxxKNR-Ltc45U5w-172" value="" style="rounded=1;whiteSpace=wrap;html=1;fillColor=#F7F7F7;" vertex="1" parent="1">
          <mxGeometry x="200" y="-598" width="1200" height="558" as="geometry" />
        </mxCell>
        <mxCell id="EnicjkxxKNR-Ltc45U5w-1" style="edgeStyle=orthogonalEdgeStyle;rounded=0;orthogonalLoop=1;jettySize=auto;html=1;exitX=1;exitY=0.5;exitDx=0;exitDy=0;entryX=0;entryY=0.5;entryDx=0;entryDy=0;strokeWidth=3;sketch=0;fillColor=#dae8fc;strokeColor=#6c8ebf;fontStyle=1;fontSize=30;" edge="1" parent="1" source="EnicjkxxKNR-Ltc45U5w-2" target="EnicjkxxKNR-Ltc45U5w-4">
          <mxGeometry relative="1" as="geometry" />
        </mxCell>
        <mxCell id="EnicjkxxKNR-Ltc45U5w-2" value="1" style="rounded=1;whiteSpace=wrap;html=1;strokeWidth=3;fillWeight=4;hachureGap=8;hachureAngle=45;fillColor=#dae8fc;sketch=0;strokeColor=#6c8ebf;fontStyle=1;fontSize=30;" vertex="1" parent="1">
          <mxGeometry x="240" y="360" width="80" height="80" as="geometry" />
        </mxCell>
        <mxCell id="EnicjkxxKNR-Ltc45U5w-3" style="edgeStyle=orthogonalEdgeStyle;rounded=0;orthogonalLoop=1;jettySize=auto;html=1;exitX=1;exitY=0.5;exitDx=0;exitDy=0;strokeWidth=3;sketch=0;fillColor=#dae8fc;strokeColor=#6c8ebf;fontStyle=1;fontSize=30;" edge="1" parent="1" source="EnicjkxxKNR-Ltc45U5w-4" target="EnicjkxxKNR-Ltc45U5w-6">
          <mxGeometry relative="1" as="geometry" />
        </mxCell>
        <mxCell id="EnicjkxxKNR-Ltc45U5w-4" value="2" style="rounded=1;whiteSpace=wrap;html=1;strokeWidth=3;fillWeight=4;hachureGap=8;hachureAngle=45;fillColor=#dae8fc;sketch=0;strokeColor=#6c8ebf;fontStyle=1;fontSize=30;" vertex="1" parent="1">
          <mxGeometry x="360" y="360" width="80" height="80" as="geometry" />
        </mxCell>
        <mxCell id="EnicjkxxKNR-Ltc45U5w-5" style="edgeStyle=orthogonalEdgeStyle;rounded=0;orthogonalLoop=1;jettySize=auto;html=1;exitX=1;exitY=0.5;exitDx=0;exitDy=0;strokeWidth=3;sketch=0;fillColor=#dae8fc;strokeColor=#6c8ebf;fontStyle=1;fontSize=30;" edge="1" parent="1" source="EnicjkxxKNR-Ltc45U5w-6" target="EnicjkxxKNR-Ltc45U5w-8">
          <mxGeometry relative="1" as="geometry" />
        </mxCell>
        <mxCell id="EnicjkxxKNR-Ltc45U5w-6" value="3" style="rounded=1;whiteSpace=wrap;html=1;strokeWidth=3;fillWeight=4;hachureGap=8;hachureAngle=45;fillColor=#dae8fc;sketch=0;strokeColor=#6c8ebf;fontStyle=1;fontSize=30;" vertex="1" parent="1">
          <mxGeometry x="480" y="360" width="80" height="80" as="geometry" />
        </mxCell>
        <mxCell id="EnicjkxxKNR-Ltc45U5w-7" style="edgeStyle=orthogonalEdgeStyle;rounded=0;orthogonalLoop=1;jettySize=auto;html=1;exitX=1;exitY=0.5;exitDx=0;exitDy=0;entryX=0;entryY=0.5;entryDx=0;entryDy=0;strokeWidth=3;sketch=0;fillColor=#f8cecc;strokeColor=#b85450;fontStyle=1;fontSize=30;" edge="1" parent="1" source="EnicjkxxKNR-Ltc45U5w-8" target="EnicjkxxKNR-Ltc45U5w-10">
          <mxGeometry relative="1" as="geometry" />
        </mxCell>
        <mxCell id="EnicjkxxKNR-Ltc45U5w-8" value="4" style="rounded=1;whiteSpace=wrap;html=1;strokeWidth=3;fillWeight=4;hachureGap=8;hachureAngle=45;fillColor=#dae8fc;sketch=0;strokeColor=#6c8ebf;fontStyle=1;fontSize=30;" vertex="1" parent="1">
          <mxGeometry x="600" y="360" width="80" height="80" as="geometry" />
        </mxCell>
        <mxCell id="EnicjkxxKNR-Ltc45U5w-9" style="edgeStyle=orthogonalEdgeStyle;rounded=0;orthogonalLoop=1;jettySize=auto;html=1;exitX=1;exitY=0.5;exitDx=0;exitDy=0;strokeWidth=3;sketch=0;fillColor=#f8cecc;strokeColor=#b85450;fontStyle=1;fontSize=30;" edge="1" parent="1" source="EnicjkxxKNR-Ltc45U5w-10" target="EnicjkxxKNR-Ltc45U5w-12">
          <mxGeometry relative="1" as="geometry" />
        </mxCell>
        <mxCell id="EnicjkxxKNR-Ltc45U5w-10" value="20" style="rounded=1;whiteSpace=wrap;html=1;strokeWidth=3;fillWeight=4;hachureGap=8;hachureAngle=45;fillColor=#d5e8d4;sketch=0;strokeColor=#82b366;fontStyle=1;fontSize=30;" vertex="1" parent="1">
          <mxGeometry x="720" y="360" width="80" height="80" as="geometry" />
        </mxCell>
        <mxCell id="EnicjkxxKNR-Ltc45U5w-11" value="" style="edgeStyle=orthogonalEdgeStyle;rounded=0;orthogonalLoop=1;jettySize=auto;html=1;strokeWidth=3;sketch=0;fillColor=#f8cecc;strokeColor=#b85450;fontStyle=1;fontSize=30;" edge="1" parent="1" source="EnicjkxxKNR-Ltc45U5w-12" target="EnicjkxxKNR-Ltc45U5w-13">
          <mxGeometry relative="1" as="geometry" />
        </mxCell>
        <mxCell id="EnicjkxxKNR-Ltc45U5w-12" value="8" style="rounded=1;whiteSpace=wrap;html=1;strokeWidth=3;fillWeight=4;hachureGap=8;hachureAngle=45;fillColor=#f8cecc;sketch=0;strokeColor=#b85450;fontStyle=1;fontSize=30;" vertex="1" parent="1">
          <mxGeometry x="840" y="360" width="80" height="80" as="geometry" />
        </mxCell>
        <mxCell id="EnicjkxxKNR-Ltc45U5w-13" value="9" style="rounded=1;whiteSpace=wrap;html=1;strokeWidth=3;fillWeight=4;hachureGap=8;hachureAngle=45;fillColor=#f8cecc;sketch=0;strokeColor=#b85450;fontStyle=1;fontSize=30;" vertex="1" parent="1">
          <mxGeometry x="960" y="360" width="80" height="80" as="geometry" />
        </mxCell>
        <mxCell id="EnicjkxxKNR-Ltc45U5w-14" value="" style="rounded=1;whiteSpace=wrap;html=1;strokeWidth=3;fillWeight=4;hachureGap=8;hachureAngle=45;fillColor=#fff2cc;sketch=0;strokeColor=#d6b656;fontStyle=1;fontSize=15;" vertex="1" parent="1">
          <mxGeometry x="1201" y="80" width="120" height="280" as="geometry" />
        </mxCell>
        <mxCell id="EnicjkxxKNR-Ltc45U5w-15" style="edgeStyle=orthogonalEdgeStyle;rounded=0;orthogonalLoop=1;jettySize=auto;html=1;strokeWidth=3;sketch=0;fillColor=#dae8fc;strokeColor=#6c8ebf;fontStyle=1;fontSize=15;" edge="1" parent="1" source="EnicjkxxKNR-Ltc45U5w-16" target="EnicjkxxKNR-Ltc45U5w-2">
          <mxGeometry relative="1" as="geometry" />
        </mxCell>
        <mxCell id="EnicjkxxKNR-Ltc45U5w-16" value="head" style="rounded=1;whiteSpace=wrap;html=1;strokeWidth=3;fillWeight=4;hachureGap=8;hachureAngle=45;fillColor=#dae8fc;sketch=0;strokeColor=#6c8ebf;fontStyle=1;fontSize=15;" vertex="1" parent="1">
          <mxGeometry x="1222" y="102" width="80" height="40" as="geometry" />
        </mxCell>
        <mxCell id="EnicjkxxKNR-Ltc45U5w-17" style="edgeStyle=orthogonalEdgeStyle;rounded=0;orthogonalLoop=1;jettySize=auto;html=1;entryX=0.5;entryY=0;entryDx=0;entryDy=0;strokeWidth=3;sketch=0;fillColor=#dae8fc;strokeColor=#6c8ebf;fontStyle=1;fontSize=15;" edge="1" parent="1" source="EnicjkxxKNR-Ltc45U5w-18" target="EnicjkxxKNR-Ltc45U5w-8">
          <mxGeometry relative="1" as="geometry" />
        </mxCell>
        <mxCell id="EnicjkxxKNR-Ltc45U5w-18" value="tail" style="rounded=1;whiteSpace=wrap;html=1;strokeWidth=3;fillWeight=4;hachureGap=8;hachureAngle=45;fillColor=#dae8fc;sketch=0;strokeColor=#6c8ebf;fontStyle=1;fontSize=15;" vertex="1" parent="1">
          <mxGeometry x="1222" y="162" width="80" height="40" as="geometry" />
        </mxCell>
        <mxCell id="EnicjkxxKNR-Ltc45U5w-19" style="edgeStyle=orthogonalEdgeStyle;rounded=0;orthogonalLoop=1;jettySize=auto;html=1;entryX=0.5;entryY=0;entryDx=0;entryDy=0;strokeWidth=3;sketch=0;fillColor=#f8cecc;strokeColor=#b85450;fontStyle=1;fontSize=15;" edge="1" parent="1" source="EnicjkxxKNR-Ltc45U5w-20" target="EnicjkxxKNR-Ltc45U5w-13">
          <mxGeometry relative="1" as="geometry" />
        </mxCell>
        <mxCell id="EnicjkxxKNR-Ltc45U5w-20" value="tail" style="rounded=1;whiteSpace=wrap;html=1;strokeWidth=3;fillWeight=4;hachureGap=8;hachureAngle=45;fillColor=#f8cecc;sketch=0;strokeColor=#b85450;fontStyle=1;fontSize=15;" vertex="1" parent="1">
          <mxGeometry x="1222" y="282" width="80" height="40" as="geometry" />
        </mxCell>
        <mxCell id="EnicjkxxKNR-Ltc45U5w-21" style="edgeStyle=orthogonalEdgeStyle;rounded=0;orthogonalLoop=1;jettySize=auto;html=1;entryX=0.5;entryY=0;entryDx=0;entryDy=0;strokeWidth=3;sketch=0;fillColor=#f8cecc;strokeColor=#b85450;fontStyle=1;fontSize=15;" edge="1" parent="1" source="EnicjkxxKNR-Ltc45U5w-22" target="EnicjkxxKNR-Ltc45U5w-10">
          <mxGeometry relative="1" as="geometry" />
        </mxCell>
        <mxCell id="EnicjkxxKNR-Ltc45U5w-22" value="head" style="rounded=1;whiteSpace=wrap;html=1;strokeWidth=3;fillWeight=4;hachureGap=8;hachureAngle=45;fillColor=#f8cecc;sketch=0;strokeColor=#b85450;fontStyle=1;fontSize=15;" vertex="1" parent="1">
          <mxGeometry x="1222" y="222" width="80" height="40" as="geometry" />
        </mxCell>
        <mxCell id="EnicjkxxKNR-Ltc45U5w-23" value="" style="shape=curlyBracket;whiteSpace=wrap;html=1;rounded=1;sketch=0;strokeColor=#330000;strokeWidth=3;fontSize=30;rotation=-90;" vertex="1" parent="1">
          <mxGeometry x="450" y="300" width="20" height="360" as="geometry" />
        </mxCell>
        <mxCell id="EnicjkxxKNR-Ltc45U5w-24" value="" style="shape=curlyBracket;whiteSpace=wrap;html=1;rounded=1;sketch=0;strokeColor=#330000;strokeWidth=3;fontSize=30;rotation=-90;" vertex="1" parent="1">
          <mxGeometry x="870" y="360" width="20" height="240" as="geometry" />
        </mxCell>
        <mxCell id="EnicjkxxKNR-Ltc45U5w-25" value="young" style="text;html=1;align=center;verticalAlign=middle;resizable=0;points=[];autosize=1;strokeColor=none;fillColor=none;fontSize=30;fontStyle=1" vertex="1" parent="1">
          <mxGeometry x="405" y="510" width="110" height="50" as="geometry" />
        </mxCell>
        <mxCell id="EnicjkxxKNR-Ltc45U5w-26" value="old" style="text;html=1;align=center;verticalAlign=middle;resizable=0;points=[];autosize=1;strokeColor=none;fillColor=none;fontSize=30;fontStyle=1" vertex="1" parent="1">
          <mxGeometry x="845" y="510" width="70" height="50" as="geometry" />
        </mxCell>
        <mxCell id="EnicjkxxKNR-Ltc45U5w-27" value="10" style="rounded=1;whiteSpace=wrap;html=1;strokeWidth=3;fillWeight=4;hachureGap=8;hachureAngle=45;fillColor=#bac8d3;sketch=0;strokeColor=#23445d;fontStyle=1;fontSize=30;dashed=1;" vertex="1" parent="1">
          <mxGeometry x="1080" y="360" width="80" height="80" as="geometry" />
        </mxCell>
        <mxCell id="EnicjkxxKNR-Ltc45U5w-28" value="" style="shape=curlyBracket;whiteSpace=wrap;html=1;rounded=1;sketch=0;strokeColor=#330000;strokeWidth=3;fontSize=30;rotation=-90;" vertex="1" parent="1">
          <mxGeometry x="1110" y="450" width="20" height="60" as="geometry" />
        </mxCell>
        <mxCell id="EnicjkxxKNR-Ltc45U5w-29" value="淘汰" style="text;html=1;align=center;verticalAlign=middle;resizable=0;points=[];autosize=1;strokeColor=none;fillColor=none;fontSize=30;fontStyle=1" vertex="1" parent="1">
          <mxGeometry x="1080" y="510" width="80" height="50" as="geometry" />
        </mxCell>
        <mxCell id="EnicjkxxKNR-Ltc45U5w-109" style="edgeStyle=orthogonalEdgeStyle;rounded=0;orthogonalLoop=1;jettySize=auto;html=1;exitX=1;exitY=0.5;exitDx=0;exitDy=0;entryX=0;entryY=0.5;entryDx=0;entryDy=0;strokeWidth=3;sketch=0;fillColor=#dae8fc;strokeColor=#6c8ebf;fontStyle=1;fontSize=30;" edge="1" parent="1" source="EnicjkxxKNR-Ltc45U5w-110" target="EnicjkxxKNR-Ltc45U5w-112">
          <mxGeometry relative="1" as="geometry" />
        </mxCell>
        <mxCell id="EnicjkxxKNR-Ltc45U5w-110" value="20" style="rounded=1;whiteSpace=wrap;html=1;strokeWidth=3;fillWeight=4;hachureGap=8;hachureAngle=45;fillColor=#ffe6cc;sketch=0;strokeColor=#d79b00;fontStyle=1;fontSize=30;" vertex="1" parent="1">
          <mxGeometry x="240" y="1000" width="80" height="80" as="geometry" />
        </mxCell>
        <mxCell id="EnicjkxxKNR-Ltc45U5w-111" style="edgeStyle=orthogonalEdgeStyle;rounded=0;orthogonalLoop=1;jettySize=auto;html=1;exitX=1;exitY=0.5;exitDx=0;exitDy=0;strokeWidth=3;sketch=0;fillColor=#dae8fc;strokeColor=#6c8ebf;fontStyle=1;fontSize=30;" edge="1" parent="1" source="EnicjkxxKNR-Ltc45U5w-112" target="EnicjkxxKNR-Ltc45U5w-114">
          <mxGeometry relative="1" as="geometry" />
        </mxCell>
        <mxCell id="EnicjkxxKNR-Ltc45U5w-112" value="1" style="rounded=1;whiteSpace=wrap;html=1;strokeWidth=3;fillWeight=4;hachureGap=8;hachureAngle=45;fillColor=#dae8fc;sketch=0;strokeColor=#6c8ebf;fontStyle=1;fontSize=30;" vertex="1" parent="1">
          <mxGeometry x="360" y="1000" width="80" height="80" as="geometry" />
        </mxCell>
        <mxCell id="EnicjkxxKNR-Ltc45U5w-113" style="edgeStyle=orthogonalEdgeStyle;rounded=0;orthogonalLoop=1;jettySize=auto;html=1;exitX=1;exitY=0.5;exitDx=0;exitDy=0;strokeWidth=3;sketch=0;fillColor=#dae8fc;strokeColor=#6c8ebf;fontStyle=1;fontSize=30;" edge="1" parent="1" source="EnicjkxxKNR-Ltc45U5w-114" target="EnicjkxxKNR-Ltc45U5w-116">
          <mxGeometry relative="1" as="geometry" />
        </mxCell>
        <mxCell id="EnicjkxxKNR-Ltc45U5w-114" value="2" style="rounded=1;whiteSpace=wrap;html=1;strokeWidth=3;fillWeight=4;hachureGap=8;hachureAngle=45;fillColor=#dae8fc;sketch=0;strokeColor=#6c8ebf;fontStyle=1;fontSize=30;" vertex="1" parent="1">
          <mxGeometry x="480" y="1000" width="80" height="80" as="geometry" />
        </mxCell>
        <mxCell id="EnicjkxxKNR-Ltc45U5w-115" style="edgeStyle=orthogonalEdgeStyle;rounded=0;orthogonalLoop=1;jettySize=auto;html=1;exitX=1;exitY=0.5;exitDx=0;exitDy=0;entryX=0;entryY=0.5;entryDx=0;entryDy=0;strokeWidth=3;sketch=0;fillColor=#f8cecc;strokeColor=#b85450;fontStyle=1;fontSize=30;" edge="1" parent="1" source="EnicjkxxKNR-Ltc45U5w-116" target="EnicjkxxKNR-Ltc45U5w-118">
          <mxGeometry relative="1" as="geometry" />
        </mxCell>
        <mxCell id="EnicjkxxKNR-Ltc45U5w-116" value="3" style="rounded=1;whiteSpace=wrap;html=1;strokeWidth=3;fillWeight=4;hachureGap=8;hachureAngle=45;fillColor=#dae8fc;sketch=0;strokeColor=#6c8ebf;fontStyle=1;fontSize=30;" vertex="1" parent="1">
          <mxGeometry x="600" y="1000" width="80" height="80" as="geometry" />
        </mxCell>
        <mxCell id="EnicjkxxKNR-Ltc45U5w-117" style="edgeStyle=orthogonalEdgeStyle;rounded=0;orthogonalLoop=1;jettySize=auto;html=1;exitX=1;exitY=0.5;exitDx=0;exitDy=0;strokeWidth=3;sketch=0;fillColor=#f8cecc;strokeColor=#b85450;fontStyle=1;fontSize=30;" edge="1" parent="1" source="EnicjkxxKNR-Ltc45U5w-118" target="EnicjkxxKNR-Ltc45U5w-120">
          <mxGeometry relative="1" as="geometry" />
        </mxCell>
        <mxCell id="EnicjkxxKNR-Ltc45U5w-118" value="4" style="rounded=1;whiteSpace=wrap;html=1;strokeWidth=3;fillWeight=4;hachureGap=8;hachureAngle=45;fillColor=#f8cecc;sketch=0;strokeColor=#b85450;fontStyle=1;fontSize=30;" vertex="1" parent="1">
          <mxGeometry x="720" y="1000" width="80" height="80" as="geometry" />
        </mxCell>
        <mxCell id="EnicjkxxKNR-Ltc45U5w-119" value="" style="edgeStyle=orthogonalEdgeStyle;rounded=0;orthogonalLoop=1;jettySize=auto;html=1;strokeWidth=3;sketch=0;fillColor=#f8cecc;strokeColor=#b85450;fontStyle=1;fontSize=30;" edge="1" parent="1" source="EnicjkxxKNR-Ltc45U5w-120" target="EnicjkxxKNR-Ltc45U5w-121">
          <mxGeometry relative="1" as="geometry" />
        </mxCell>
        <mxCell id="EnicjkxxKNR-Ltc45U5w-120" value="8" style="rounded=1;whiteSpace=wrap;html=1;strokeWidth=3;fillWeight=4;hachureGap=8;hachureAngle=45;fillColor=#f8cecc;sketch=0;strokeColor=#b85450;fontStyle=1;fontSize=30;" vertex="1" parent="1">
          <mxGeometry x="840" y="1000" width="80" height="80" as="geometry" />
        </mxCell>
        <mxCell id="EnicjkxxKNR-Ltc45U5w-121" value="9" style="rounded=1;whiteSpace=wrap;html=1;strokeWidth=3;fillWeight=4;hachureGap=8;hachureAngle=45;fillColor=#f8cecc;sketch=0;strokeColor=#b85450;fontStyle=1;fontSize=30;" vertex="1" parent="1">
          <mxGeometry x="960" y="1000" width="80" height="80" as="geometry" />
        </mxCell>
        <mxCell id="EnicjkxxKNR-Ltc45U5w-122" value="" style="rounded=1;whiteSpace=wrap;html=1;strokeWidth=3;fillWeight=4;hachureGap=8;hachureAngle=45;fillColor=#fff2cc;sketch=0;strokeColor=#d6b656;fontStyle=1;fontSize=15;" vertex="1" parent="1">
          <mxGeometry x="1201" y="720" width="120" height="280" as="geometry" />
        </mxCell>
        <mxCell id="EnicjkxxKNR-Ltc45U5w-123" style="edgeStyle=orthogonalEdgeStyle;rounded=0;orthogonalLoop=1;jettySize=auto;html=1;strokeWidth=3;sketch=0;fillColor=#dae8fc;strokeColor=#6c8ebf;fontStyle=1;fontSize=15;" edge="1" parent="1" source="EnicjkxxKNR-Ltc45U5w-124" target="EnicjkxxKNR-Ltc45U5w-110">
          <mxGeometry relative="1" as="geometry" />
        </mxCell>
        <mxCell id="EnicjkxxKNR-Ltc45U5w-124" value="head" style="rounded=1;whiteSpace=wrap;html=1;strokeWidth=3;fillWeight=4;hachureGap=8;hachureAngle=45;fillColor=#dae8fc;sketch=0;strokeColor=#6c8ebf;fontStyle=1;fontSize=15;" vertex="1" parent="1">
          <mxGeometry x="1222" y="742" width="80" height="40" as="geometry" />
        </mxCell>
        <mxCell id="EnicjkxxKNR-Ltc45U5w-125" style="edgeStyle=orthogonalEdgeStyle;rounded=0;orthogonalLoop=1;jettySize=auto;html=1;entryX=0.5;entryY=0;entryDx=0;entryDy=0;strokeWidth=3;sketch=0;fillColor=#dae8fc;strokeColor=#6c8ebf;fontStyle=1;fontSize=15;" edge="1" parent="1" source="EnicjkxxKNR-Ltc45U5w-126" target="EnicjkxxKNR-Ltc45U5w-116">
          <mxGeometry relative="1" as="geometry" />
        </mxCell>
        <mxCell id="EnicjkxxKNR-Ltc45U5w-126" value="tail" style="rounded=1;whiteSpace=wrap;html=1;strokeWidth=3;fillWeight=4;hachureGap=8;hachureAngle=45;fillColor=#dae8fc;sketch=0;strokeColor=#6c8ebf;fontStyle=1;fontSize=15;" vertex="1" parent="1">
          <mxGeometry x="1222" y="802" width="80" height="40" as="geometry" />
        </mxCell>
        <mxCell id="EnicjkxxKNR-Ltc45U5w-127" style="edgeStyle=orthogonalEdgeStyle;rounded=0;orthogonalLoop=1;jettySize=auto;html=1;entryX=0.5;entryY=0;entryDx=0;entryDy=0;strokeWidth=3;sketch=0;fillColor=#f8cecc;strokeColor=#b85450;fontStyle=1;fontSize=15;" edge="1" parent="1" source="EnicjkxxKNR-Ltc45U5w-128" target="EnicjkxxKNR-Ltc45U5w-121">
          <mxGeometry relative="1" as="geometry" />
        </mxCell>
        <mxCell id="EnicjkxxKNR-Ltc45U5w-128" value="tail" style="rounded=1;whiteSpace=wrap;html=1;strokeWidth=3;fillWeight=4;hachureGap=8;hachureAngle=45;fillColor=#f8cecc;sketch=0;strokeColor=#b85450;fontStyle=1;fontSize=15;" vertex="1" parent="1">
          <mxGeometry x="1222" y="922" width="80" height="40" as="geometry" />
        </mxCell>
        <mxCell id="EnicjkxxKNR-Ltc45U5w-129" style="edgeStyle=orthogonalEdgeStyle;rounded=0;orthogonalLoop=1;jettySize=auto;html=1;entryX=0.5;entryY=0;entryDx=0;entryDy=0;strokeWidth=3;sketch=0;fillColor=#f8cecc;strokeColor=#b85450;fontStyle=1;fontSize=15;" edge="1" parent="1" source="EnicjkxxKNR-Ltc45U5w-130" target="EnicjkxxKNR-Ltc45U5w-118">
          <mxGeometry relative="1" as="geometry" />
        </mxCell>
        <mxCell id="EnicjkxxKNR-Ltc45U5w-130" value="head" style="rounded=1;whiteSpace=wrap;html=1;strokeWidth=3;fillWeight=4;hachureGap=8;hachureAngle=45;fillColor=#f8cecc;sketch=0;strokeColor=#b85450;fontStyle=1;fontSize=15;" vertex="1" parent="1">
          <mxGeometry x="1222" y="862" width="80" height="40" as="geometry" />
        </mxCell>
        <mxCell id="EnicjkxxKNR-Ltc45U5w-131" value="" style="shape=curlyBracket;whiteSpace=wrap;html=1;rounded=1;sketch=0;strokeColor=#330000;strokeWidth=3;fontSize=30;rotation=-90;" vertex="1" parent="1">
          <mxGeometry x="450" y="940" width="20" height="360" as="geometry" />
        </mxCell>
        <mxCell id="EnicjkxxKNR-Ltc45U5w-132" value="" style="shape=curlyBracket;whiteSpace=wrap;html=1;rounded=1;sketch=0;strokeColor=#330000;strokeWidth=3;fontSize=30;rotation=-90;" vertex="1" parent="1">
          <mxGeometry x="870" y="1000" width="20" height="240" as="geometry" />
        </mxCell>
        <mxCell id="EnicjkxxKNR-Ltc45U5w-133" value="young" style="text;html=1;align=center;verticalAlign=middle;resizable=0;points=[];autosize=1;strokeColor=none;fillColor=none;fontSize=30;fontStyle=1" vertex="1" parent="1">
          <mxGeometry x="405" y="1150" width="110" height="50" as="geometry" />
        </mxCell>
        <mxCell id="EnicjkxxKNR-Ltc45U5w-134" value="old" style="text;html=1;align=center;verticalAlign=middle;resizable=0;points=[];autosize=1;strokeColor=none;fillColor=none;fontSize=30;fontStyle=1" vertex="1" parent="1">
          <mxGeometry x="845" y="1150" width="70" height="50" as="geometry" />
        </mxCell>
        <mxCell id="EnicjkxxKNR-Ltc45U5w-135" value="20" style="rounded=1;whiteSpace=wrap;html=1;strokeWidth=3;fillWeight=4;hachureGap=8;hachureAngle=45;fillColor=#e1d5e7;sketch=0;strokeColor=#9673a6;fontStyle=1;fontSize=30;dashed=1;shadow=0;" vertex="1" parent="1">
          <mxGeometry x="1080" y="1000" width="80" height="80" as="geometry" />
        </mxCell>
        <mxCell id="EnicjkxxKNR-Ltc45U5w-136" value="" style="shape=curlyBracket;whiteSpace=wrap;html=1;rounded=1;sketch=0;strokeColor=#330000;strokeWidth=3;fontSize=30;rotation=-90;" vertex="1" parent="1">
          <mxGeometry x="1110" y="1090" width="20" height="60" as="geometry" />
        </mxCell>
        <mxCell id="EnicjkxxKNR-Ltc45U5w-137" value="访问" style="text;html=1;align=center;verticalAlign=middle;resizable=0;points=[];autosize=1;strokeColor=none;fillColor=none;fontSize=30;fontStyle=1" vertex="1" parent="1">
          <mxGeometry x="1080" y="1150" width="80" height="50" as="geometry" />
        </mxCell>
        <mxCell id="EnicjkxxKNR-Ltc45U5w-138" style="edgeStyle=orthogonalEdgeStyle;rounded=0;orthogonalLoop=1;jettySize=auto;html=1;exitX=1;exitY=0.5;exitDx=0;exitDy=0;entryX=0;entryY=0.5;entryDx=0;entryDy=0;strokeWidth=3;sketch=0;fillColor=#dae8fc;strokeColor=#6c8ebf;fontStyle=1;fontSize=30;" edge="1" parent="1" source="EnicjkxxKNR-Ltc45U5w-139" target="EnicjkxxKNR-Ltc45U5w-141">
          <mxGeometry relative="1" as="geometry" />
        </mxCell>
        <mxCell id="EnicjkxxKNR-Ltc45U5w-139" value="1" style="rounded=1;whiteSpace=wrap;html=1;strokeWidth=3;fillWeight=4;hachureGap=8;hachureAngle=45;fillColor=#dae8fc;sketch=0;strokeColor=#6c8ebf;fontStyle=1;fontSize=30;" vertex="1" parent="1">
          <mxGeometry x="240" y="-280" width="80" height="80" as="geometry" />
        </mxCell>
        <mxCell id="EnicjkxxKNR-Ltc45U5w-140" style="edgeStyle=orthogonalEdgeStyle;rounded=0;orthogonalLoop=1;jettySize=auto;html=1;exitX=1;exitY=0.5;exitDx=0;exitDy=0;strokeWidth=3;sketch=0;fillColor=#dae8fc;strokeColor=#6c8ebf;fontStyle=1;fontSize=30;" edge="1" parent="1" source="EnicjkxxKNR-Ltc45U5w-141" target="EnicjkxxKNR-Ltc45U5w-143">
          <mxGeometry relative="1" as="geometry" />
        </mxCell>
        <mxCell id="EnicjkxxKNR-Ltc45U5w-141" value="2" style="rounded=1;whiteSpace=wrap;html=1;strokeWidth=3;fillWeight=4;hachureGap=8;hachureAngle=45;fillColor=#dae8fc;sketch=0;strokeColor=#6c8ebf;fontStyle=1;fontSize=30;" vertex="1" parent="1">
          <mxGeometry x="360" y="-280" width="80" height="80" as="geometry" />
        </mxCell>
        <mxCell id="EnicjkxxKNR-Ltc45U5w-142" style="edgeStyle=orthogonalEdgeStyle;rounded=0;orthogonalLoop=1;jettySize=auto;html=1;exitX=1;exitY=0.5;exitDx=0;exitDy=0;strokeWidth=3;sketch=0;fillColor=#dae8fc;strokeColor=#6c8ebf;fontStyle=1;fontSize=30;" edge="1" parent="1" source="EnicjkxxKNR-Ltc45U5w-143" target="EnicjkxxKNR-Ltc45U5w-145">
          <mxGeometry relative="1" as="geometry" />
        </mxCell>
        <mxCell id="EnicjkxxKNR-Ltc45U5w-143" value="3" style="rounded=1;whiteSpace=wrap;html=1;strokeWidth=3;fillWeight=4;hachureGap=8;hachureAngle=45;fillColor=#dae8fc;sketch=0;strokeColor=#6c8ebf;fontStyle=1;fontSize=30;" vertex="1" parent="1">
          <mxGeometry x="480" y="-280" width="80" height="80" as="geometry" />
        </mxCell>
        <mxCell id="EnicjkxxKNR-Ltc45U5w-144" style="edgeStyle=orthogonalEdgeStyle;rounded=0;orthogonalLoop=1;jettySize=auto;html=1;exitX=1;exitY=0.5;exitDx=0;exitDy=0;entryX=0;entryY=0.5;entryDx=0;entryDy=0;strokeWidth=3;sketch=0;fillColor=#f8cecc;strokeColor=#b85450;fontStyle=1;fontSize=30;" edge="1" parent="1" source="EnicjkxxKNR-Ltc45U5w-145" target="EnicjkxxKNR-Ltc45U5w-147">
          <mxGeometry relative="1" as="geometry" />
        </mxCell>
        <mxCell id="EnicjkxxKNR-Ltc45U5w-145" value="4" style="rounded=1;whiteSpace=wrap;html=1;strokeWidth=3;fillWeight=4;hachureGap=8;hachureAngle=45;fillColor=#dae8fc;sketch=0;strokeColor=#6c8ebf;fontStyle=1;fontSize=30;" vertex="1" parent="1">
          <mxGeometry x="600" y="-280" width="80" height="80" as="geometry" />
        </mxCell>
        <mxCell id="EnicjkxxKNR-Ltc45U5w-146" style="edgeStyle=orthogonalEdgeStyle;rounded=0;orthogonalLoop=1;jettySize=auto;html=1;exitX=1;exitY=0.5;exitDx=0;exitDy=0;strokeWidth=3;sketch=0;fillColor=#f8cecc;strokeColor=#b85450;fontStyle=1;fontSize=30;" edge="1" parent="1" source="EnicjkxxKNR-Ltc45U5w-147" target="EnicjkxxKNR-Ltc45U5w-149">
          <mxGeometry relative="1" as="geometry" />
        </mxCell>
        <mxCell id="EnicjkxxKNR-Ltc45U5w-147" value="8" style="rounded=1;whiteSpace=wrap;html=1;strokeWidth=3;fillWeight=4;hachureGap=8;hachureAngle=45;fillColor=#f8cecc;sketch=0;strokeColor=#b85450;fontStyle=1;fontSize=30;" vertex="1" parent="1">
          <mxGeometry x="720" y="-280" width="80" height="80" as="geometry" />
        </mxCell>
        <mxCell id="EnicjkxxKNR-Ltc45U5w-148" value="" style="edgeStyle=orthogonalEdgeStyle;rounded=0;orthogonalLoop=1;jettySize=auto;html=1;strokeWidth=3;sketch=0;fillColor=#f8cecc;strokeColor=#b85450;fontStyle=1;fontSize=30;" edge="1" parent="1" source="EnicjkxxKNR-Ltc45U5w-149" target="EnicjkxxKNR-Ltc45U5w-150">
          <mxGeometry relative="1" as="geometry" />
        </mxCell>
        <mxCell id="EnicjkxxKNR-Ltc45U5w-149" value="9" style="rounded=1;whiteSpace=wrap;html=1;strokeWidth=3;fillWeight=4;hachureGap=8;hachureAngle=45;fillColor=#f8cecc;sketch=0;strokeColor=#b85450;fontStyle=1;fontSize=30;" vertex="1" parent="1">
          <mxGeometry x="840" y="-280" width="80" height="80" as="geometry" />
        </mxCell>
        <mxCell id="EnicjkxxKNR-Ltc45U5w-150" value="10" style="rounded=1;whiteSpace=wrap;html=1;strokeWidth=3;fillWeight=4;hachureGap=8;hachureAngle=45;fillColor=#f8cecc;sketch=0;strokeColor=#b85450;fontStyle=1;fontSize=30;" vertex="1" parent="1">
          <mxGeometry x="960" y="-280" width="80" height="80" as="geometry" />
        </mxCell>
        <mxCell id="EnicjkxxKNR-Ltc45U5w-151" value="" style="rounded=1;whiteSpace=wrap;html=1;strokeWidth=3;fillWeight=4;hachureGap=8;hachureAngle=45;fillColor=#fff2cc;sketch=0;strokeColor=#d6b656;fontStyle=1;fontSize=15;" vertex="1" parent="1">
          <mxGeometry x="1201" y="-560" width="120" height="280" as="geometry" />
        </mxCell>
        <mxCell id="EnicjkxxKNR-Ltc45U5w-152" style="edgeStyle=orthogonalEdgeStyle;rounded=0;orthogonalLoop=1;jettySize=auto;html=1;strokeWidth=3;sketch=0;fillColor=#dae8fc;strokeColor=#6c8ebf;fontStyle=1;fontSize=15;" edge="1" parent="1" source="EnicjkxxKNR-Ltc45U5w-153" target="EnicjkxxKNR-Ltc45U5w-139">
          <mxGeometry relative="1" as="geometry" />
        </mxCell>
        <mxCell id="EnicjkxxKNR-Ltc45U5w-153" value="head" style="rounded=1;whiteSpace=wrap;html=1;strokeWidth=3;fillWeight=4;hachureGap=8;hachureAngle=45;fillColor=#dae8fc;sketch=0;strokeColor=#6c8ebf;fontStyle=1;fontSize=15;" vertex="1" parent="1">
          <mxGeometry x="1222" y="-538" width="80" height="40" as="geometry" />
        </mxCell>
        <mxCell id="EnicjkxxKNR-Ltc45U5w-154" style="edgeStyle=orthogonalEdgeStyle;rounded=0;orthogonalLoop=1;jettySize=auto;html=1;entryX=0.5;entryY=0;entryDx=0;entryDy=0;strokeWidth=3;sketch=0;fillColor=#dae8fc;strokeColor=#6c8ebf;fontStyle=1;fontSize=15;" edge="1" parent="1" source="EnicjkxxKNR-Ltc45U5w-155" target="EnicjkxxKNR-Ltc45U5w-145">
          <mxGeometry relative="1" as="geometry" />
        </mxCell>
        <mxCell id="EnicjkxxKNR-Ltc45U5w-155" value="tail" style="rounded=1;whiteSpace=wrap;html=1;strokeWidth=3;fillWeight=4;hachureGap=8;hachureAngle=45;fillColor=#dae8fc;sketch=0;strokeColor=#6c8ebf;fontStyle=1;fontSize=15;" vertex="1" parent="1">
          <mxGeometry x="1222" y="-478" width="80" height="40" as="geometry" />
        </mxCell>
        <mxCell id="EnicjkxxKNR-Ltc45U5w-156" style="edgeStyle=orthogonalEdgeStyle;rounded=0;orthogonalLoop=1;jettySize=auto;html=1;entryX=0.5;entryY=0;entryDx=0;entryDy=0;strokeWidth=3;sketch=0;fillColor=#f8cecc;strokeColor=#b85450;fontStyle=1;fontSize=15;" edge="1" parent="1" source="EnicjkxxKNR-Ltc45U5w-157" target="EnicjkxxKNR-Ltc45U5w-150">
          <mxGeometry relative="1" as="geometry" />
        </mxCell>
        <mxCell id="EnicjkxxKNR-Ltc45U5w-157" value="tail" style="rounded=1;whiteSpace=wrap;html=1;strokeWidth=3;fillWeight=4;hachureGap=8;hachureAngle=45;fillColor=#f8cecc;sketch=0;strokeColor=#b85450;fontStyle=1;fontSize=15;" vertex="1" parent="1">
          <mxGeometry x="1222" y="-358" width="80" height="40" as="geometry" />
        </mxCell>
        <mxCell id="EnicjkxxKNR-Ltc45U5w-158" style="edgeStyle=orthogonalEdgeStyle;rounded=0;orthogonalLoop=1;jettySize=auto;html=1;entryX=0.5;entryY=0;entryDx=0;entryDy=0;strokeWidth=3;sketch=0;fillColor=#f8cecc;strokeColor=#b85450;fontStyle=1;fontSize=15;" edge="1" parent="1" source="EnicjkxxKNR-Ltc45U5w-159" target="EnicjkxxKNR-Ltc45U5w-147">
          <mxGeometry relative="1" as="geometry" />
        </mxCell>
        <mxCell id="EnicjkxxKNR-Ltc45U5w-159" value="head" style="rounded=1;whiteSpace=wrap;html=1;strokeWidth=3;fillWeight=4;hachureGap=8;hachureAngle=45;fillColor=#f8cecc;sketch=0;strokeColor=#b85450;fontStyle=1;fontSize=15;" vertex="1" parent="1">
          <mxGeometry x="1222" y="-418" width="80" height="40" as="geometry" />
        </mxCell>
        <mxCell id="EnicjkxxKNR-Ltc45U5w-160" value="" style="shape=curlyBracket;whiteSpace=wrap;html=1;rounded=1;sketch=0;strokeColor=#330000;strokeWidth=3;fontSize=30;rotation=-90;" vertex="1" parent="1">
          <mxGeometry x="450" y="-340" width="20" height="360" as="geometry" />
        </mxCell>
        <mxCell id="EnicjkxxKNR-Ltc45U5w-161" value="" style="shape=curlyBracket;whiteSpace=wrap;html=1;rounded=1;sketch=0;strokeColor=#330000;strokeWidth=3;fontSize=30;rotation=-90;" vertex="1" parent="1">
          <mxGeometry x="870" y="-280" width="20" height="240" as="geometry" />
        </mxCell>
        <mxCell id="EnicjkxxKNR-Ltc45U5w-162" value="young" style="text;html=1;align=center;verticalAlign=middle;resizable=0;points=[];autosize=1;strokeColor=none;fillColor=none;fontSize=30;fontStyle=1" vertex="1" parent="1">
          <mxGeometry x="405" y="-130" width="110" height="50" as="geometry" />
        </mxCell>
        <mxCell id="EnicjkxxKNR-Ltc45U5w-163" value="old" style="text;html=1;align=center;verticalAlign=middle;resizable=0;points=[];autosize=1;strokeColor=none;fillColor=none;fontSize=30;fontStyle=1" vertex="1" parent="1">
          <mxGeometry x="845" y="-130" width="70" height="50" as="geometry" />
        </mxCell>
        <mxCell id="EnicjkxxKNR-Ltc45U5w-164" value="20" style="rounded=1;whiteSpace=wrap;html=1;strokeWidth=3;fillWeight=4;hachureGap=8;hachureAngle=45;fillColor=#b0e3e6;sketch=0;strokeColor=#0e8088;fontStyle=1;fontSize=30;dashed=1;" vertex="1" parent="1">
          <mxGeometry x="1080" y="-280" width="80" height="80" as="geometry" />
        </mxCell>
        <mxCell id="EnicjkxxKNR-Ltc45U5w-165" value="" style="shape=curlyBracket;whiteSpace=wrap;html=1;rounded=1;sketch=0;strokeColor=#330000;strokeWidth=3;fontSize=30;rotation=-90;" vertex="1" parent="1">
          <mxGeometry x="1110" y="-190" width="20" height="60" as="geometry" />
        </mxCell>
        <mxCell id="EnicjkxxKNR-Ltc45U5w-166" value="预读" style="text;html=1;align=center;verticalAlign=middle;resizable=0;points=[];autosize=1;strokeColor=none;fillColor=none;fontSize=30;fontStyle=1" vertex="1" parent="1">
          <mxGeometry x="1080" y="-130" width="80" height="50" as="geometry" />
        </mxCell>
        <mxCell id="EnicjkxxKNR-Ltc45U5w-176" value="1" style="ellipse;whiteSpace=wrap;html=1;aspect=fixed;shadow=0;sketch=0;fillColor=#cdeb8b;fontSize=34;fontStyle=1;strokeColor=#36393d;" vertex="1" parent="1">
          <mxGeometry x="1280" y="-160" width="80" height="80" as="geometry" />
        </mxCell>
        <mxCell id="EnicjkxxKNR-Ltc45U5w-177" value="2" style="ellipse;whiteSpace=wrap;html=1;aspect=fixed;shadow=0;sketch=0;fillColor=#cdeb8b;fontSize=34;fontStyle=1;strokeColor=#36393d;" vertex="1" parent="1">
          <mxGeometry x="1280" y="480" width="80" height="80" as="geometry" />
        </mxCell>
        <mxCell id="EnicjkxxKNR-Ltc45U5w-178" value="3" style="ellipse;whiteSpace=wrap;html=1;aspect=fixed;shadow=0;sketch=0;fillColor=#cdeb8b;fontSize=34;fontStyle=1;strokeColor=#36393d;" vertex="1" parent="1">
          <mxGeometry x="1270" y="1120" width="80" height="80" as="geometry" />
        </mxCell>
      </root>
    </mxGraphModel>
  </diagram>
</mxfile>
